<?xml version="1.0" standalone="no"?>
<!DOCTYPE svg PUBLIC "-//W3C//DTD SVG 20010904//EN"
 "http://www.w3.org/TR/2001/REC-SVG-20010904/DTD/svg10.dtd">
<svg version="1.0" xmlns="http://www.w3.org/2000/svg"
 width="5000.000000pt" height="5000.000000pt" viewBox="0 0 5000.000000 5000.000000"
 preserveAspectRatio="xMidYMid meet">

<g transform="translate(0.000000,5000.000000) scale(0.100000,-0.100000)"
fill="#000000" stroke="none">
<path d="M24255 49989 c-2652 -80 -5262 -577 -7730 -1472 -1634 -593 -3257
-1383 -4720 -2299 -2438 -1525 -4586 -3443 -6378 -5694 -1681 -2113 -3024
-4512 -3944 -7049 -1119 -3087 -1615 -6399 -1453 -9705 217 -4420 1593 -8657
4020 -12385 1697 -2606 3919 -4924 6460 -6737 1425 -1016 2830 -1816 4485
-2550 2295 -1020 4867 -1701 7400 -1962 932 -96 1614 -130 2605 -130 725 0
976 7 1580 45 3364 211 6649 1103 9625 2613 1056 536 1931 1051 2835 1669
4062 2778 7203 6640 9080 11167 803 1937 1376 4064 1654 6140 539 4018 108
8068 -1259 11840 -704 1942 -1678 3845 -2838 5545 -1787 2619 -4033 4865
-6652 6652 -1875 1279 -3986 2326 -6135 3043 -2570 858 -5238 1287 -7945 1278
-242 -1 -552 -5 -690 -9z m-1148 -4509 c1127 -2550 1340 -3038 1435 -3280 8
-21 21 4 112 215 57 132 151 346 209 475 145 324 2244 4935 2262 4971 l16 29
784 0 785 0 -2 -3337 -3 -3338 -560 0 -560 0 -5 2785 -5 2785 -1269 -2765
c-698 -1521 -1275 -2775 -1283 -2787 l-13 -23 -519 0 c-403 0 -521 3 -528 13
-6 6 -581 1283 -1279 2836 l-1269 2824 -5 -2834 -5 -2834 -560 0 -560 0 -3
3325 c-1 1829 0 3331 3 3338 3 10 185 12 882 10 l877 -3 1063 -2405z m17504
-2980 c144 -178 262 -329 262 -335 0 -9 -2589 -3310 -2957 -3770 -146 -184
-369 -453 -530 -640 -66 -77 -126 -148 -134 -157 -8 -10 149 61 349 158 200
97 441 212 534 256 116 55 4196 1844 4500 1974 11 4 660 -790 660 -807 0 -14
-2132 -3001 -2356 -3300 -319 -427 -660 -846 -957 -1177 -244 -272 -238 -254
-50 -156 208 108 733 368 998 493 113 54 1086 520 2163 1036 1919 919 1959
937 1978 919 51 -52 527 -650 521 -656 -4 -3 -1419 -635 -3146 -1403 -1928
-858 -3142 -1393 -3148 -1387 -5 5 -123 150 -263 323 l-253 314 35 50 c59 81
3162 4379 3253 4505 46 63 123 168 172 233 49 64 87 117 85 117 -2 0 -112 -52
-243 -116 -175 -85 -4612 -2050 -5214 -2309 l-75 -32 -275 341 c-151 187 -274
343 -273 347 1 3 919 1249 2039 2768 1635 2216 2040 2759 2050 2749 6 -7 130
-159 275 -338z m-31250 -1005 c589 -87 1035 -402 1268 -895 127 -270 178 -518
168 -820 -7 -197 -25 -321 -77 -529 -22 -85 -38 -157 -35 -159 2 -2 36 19 77
46 274 185 619 335 897 392 330 67 687 48 967 -51 389 -137 769 -450 995 -821
228 -374 351 -884 310 -1288 -63 -614 -420 -1310 -1082 -2107 -68 -82 -629
-736 -1248 -1456 -1014 -1179 -1126 -1306 -1142 -1295 -36 26 -5878 5053
-5878 5059 -1 8 2204 2572 2365 2750 670 742 1314 1133 1954 1188 127 11 331
5 461 -14z m16304 -1735 c1323 -40 2576 -245 3819 -625 3782 -1156 6955 -3840
8745 -7395 952 -1890 1467 -3933 1531 -6075 5 -181 10 -349 10 -372 l0 -43
-7260 0 -7260 0 0 7260 0 7260 43 0 c23 0 191 -5 372 -10z m-915 -7255 l0
-7255 -7255 0 -7255 0 0 208 c0 635 73 1445 196 2187 610 3673 2650 7000 5674
9252 2280 1698 5002 2687 7825 2843 277 15 296 16 568 18 l247 2 0 -7255z m0
-15015 l0 -7260 -42 0 c-24 0 -191 5 -373 10 -1281 39 -2516 236 -3710 592
-2679 799 -5077 2361 -6910 4503 -1137 1328 -2035 2870 -2628 4515 -465 1289
-730 2576 -827 4010 -9 133 -30 720 -30 848 l0 42 7260 0 7260 0 0 -7260z
m15007 6918 c-32 -1698 -384 -3420 -1027 -5028 -891 -2225 -2331 -4208 -4185
-5761 -1861 -1558 -4081 -2626 -6445 -3099 -841 -169 -1680 -261 -2507 -277
l-343 -6 0 7256 0 7257 7257 0 7256 0 -6 -342z"/>
<path d="M8650 40404 c-238 -51 -420 -149 -650 -349 -128 -112 -455 -446 -616
-630 -301 -343 -1324 -1536 -1324 -1544 0 -8 1765 -1531 1774 -1531 6 0 1158
1338 1368 1588 552 659 740 1023 740 1432 0 201 -46 356 -155 524 -168 257
-472 460 -764 511 -106 18 -286 18 -373 -1z"/>
<path d="M11493 38490 c-148 -15 -317 -67 -465 -141 -274 -137 -634 -452
-1035 -904 -279 -315 -1453 -1690 -1450 -1699 2 -6 455 -400 1007 -875 722
-622 1007 -861 1016 -855 17 12 1533 1777 1667 1942 293 359 444 612 536 897
56 173 66 238 66 415 -1 262 -59 457 -204 675 -59 90 -234 266 -331 334 -237
166 -522 241 -807 211z"/>
</g>
</svg>
